<mxfile host="app.diagrams.net" modified="2024-06-21T21:11:49.308Z" agent="Mozilla/5.0 (X11; Linux x86_64) AppleWebKit/537.36 (KHTML, like Gecko) Chrome/108.0.0.0 Safari/537.36" version="24.6.1" etag="AK1E4-hU2yoHHWjKYkZA" type="github">
  <diagram name="PÃ¡gina-1" id="TP0LybyOXQ5Npmt_iumN">
    <mxGraphModel>
      <root>
        <mxCell id="0" />
        <mxCell id="1" parent="0" />
      </root>
    </mxGraphModel>
  </diagram>
</mxfile>
